SplineFontDB: 3.0
FontName: TwidereIconic
FullName: TwidereIconic
FamilyName: TwidereIconic
Weight: Medium
Copyright: Created by Mariotaku Lee,,, with FontForge 2.0 (http://fontforge.sf.net)
UComments: "2014-1-30: Created." 
Version: 001.000
ItalicAngle: 0
UnderlinePosition: -102
UnderlineWidth: 51
Ascent: 819
Descent: 205
LayerCount: 2
Layer: 0 0 "+gMxmbwAA"  1
Layer: 1 0 "+Uk1mbwAA"  0
XUID: [1021 656 1482610534 14720646]
FSType: 0
OS2Version: 0
OS2_WeightWidthSlopeOnly: 0
OS2_UseTypoMetrics: 1
CreationTime: 1391066035
ModificationTime: 1391721840
OS2TypoAscent: 0
OS2TypoAOffset: 1
OS2TypoDescent: 0
OS2TypoDOffset: 1
OS2TypoLinegap: 92
OS2WinAscent: 0
OS2WinAOffset: 1
OS2WinDescent: 0
OS2WinDOffset: 1
HheadAscent: 0
HheadAOffset: 1
HheadDescent: 0
HheadDOffset: 1
MarkAttachClasses: 1
DEI: 91125
Encoding: UnicodeBmp
UnicodeInterp: none
NameList: Adobe Glyph List
DisplaySize: -48
AntiAlias: 1
FitToEm: 0
WinInfo: 61317 27 10
BeginPrivate: 0
EndPrivate
BeginChars: 65539 36

StartChar: twidere
Encoding: 61440 61440 0
Width: 1024
VWidth: 0
Flags: HW
LayerCount: 2
Fore
SplineSet
501.634 -65 m 4
 462.502 -25.957 431.862 24.5938 417.09 74.4854 c 4
 406.374 110.676 403.747 139.812 406.814 188.466 c 4
 410.118 240.887 420.46 316.594 436.309 404.368 c 6
 439.36 421.271 l 5
 411.43 466.462 l 5
 383.498 511.652 l 5
 383.272 527.289 l 6
 382.908 552.491 382.281 636.62 382.456 636.795 c 4
 382.544 636.883 389.908 637.104 398.819 637.286 c 4
 407.731 637.469 419.989 637.724 426.059 637.854 c 6
 437.095 638.089 l 5
 455.899 617.856 l 6
 466.242 606.729 474.812 597.732 474.944 597.864 c 4
 475.076 597.996 475.354 598.806 475.561 599.664 c 6
 475.938 601.224 l 5
 489.858 601.321 l 5
 503.778 601.419 l 5
 503.778 617.298 l 5
 503.778 633.175 l 5
 512 633.175 l 5
 520.222 633.175 l 5
 520.222 617.293 l 5
 520.222 601.41 l 5
 535.076 601.415 l 5
 549.931 601.421 l 5
 565.813 618.583 l 5
 581.696 635.744 l 5
 586.367 635.773 l 6
 591.732 635.807 636.577 634.992 636.736 634.858 c 4
 636.886 634.733 636.117 538.573 635.84 522.677 c 6
 635.61 509.529 l 5
 610.605 469.074 l 5
 585.6 428.62 l 5
 589.145 408.977 l 6
 613.265 275.341 623.982 177.947 619.826 130.168 c 4
 618.176 111.205 614.892 93.9297 609.338 75.0107 c 4
 594.635 24.9209 563.741 -26.085 524.422 -65.1865 c 6
 517.564 -72.0068 l 5
 513.11 -72.0068 l 5
 508.657 -72.0068 l 5
 501.634 -65 l 4
339.161 205.099 m 4
 311.824 208.862 288.786 212.121 287.964 212.341 c 4
 287.142 212.56 285.922 212.743 285.254 212.748 c 4
 284.586 212.753 284.04 212.925 284.04 213.13 c 4
 284.04 213.336 283.558 213.504 282.969 213.504 c 4
 282.379 213.504 281.076 213.824 280.072 214.215 c 4
 279.068 214.606 277.238 215.206 276.005 215.549 c 4
 274.771 215.891 273.377 216.327 272.904 216.519 c 4
 272.433 216.711 271.718 216.867 271.316 216.867 c 4
 270.915 216.867 270.586 217.015 270.586 217.195 c 4
 270.586 217.376 269.535 217.905 268.251 218.372 c 4
 265.354 219.423 259.85 222.008 259.581 222.441 c 4
 259.472 222.619 258.92 222.88 258.354 223.021 c 4
 257.79 223.163 257.241 223.393 257.137 223.53 c 4
 256.927 223.807 255.403 224.705 253.407 225.73 c 4
 252.694 226.097 251.805 226.698 251.431 227.065 c 4
 251.057 227.434 250.372 227.878 249.91 228.054 c 4
 248.859 228.453 242.056 233.477 238.821 236.239 c 4
 236.404 238.306 227.61 246.996 227.61 247.319 c 4
 227.61 247.413 226.856 248.293 225.935 249.275 c 4
 225.014 250.258 224.257 251.231 224.253 251.438 c 4
 224.25 251.646 223.91 252.026 223.499 252.282 c 4
 223.088 252.539 222.752 252.96 222.752 253.217 c 4
 222.752 253.474 222.409 253.898 221.99 254.16 c 4
 221.571 254.422 221.322 254.788 221.438 254.975 c 4
 221.553 255.161 221.421 255.449 221.146 255.616 c 4
 220.586 255.956 217.062 261.04 216.015 263.02 c 4
 215.269 264.431 214.688 265.37 214.189 265.97 c 4
 213.916 266.3 213.816 266.57 213.97 266.57 c 4
 214.123 266.57 214.024 266.841 213.75 267.171 c 4
 212.903 268.19 212.242 269.464 210.518 273.391 c 4
 210.179 274.161 209.757 274.792 209.578 274.792 c 4
 209.4 274.792 209.363 274.967 209.495 275.182 c 4
 209.628 275.396 209.57 275.774 209.368 276.022 c 4
 208.864 276.639 207.059 281.145 207.315 281.145 c 4
 207.429 281.145 207.344 281.359 207.126 281.622 c 4
 206.908 281.885 206.296 283.439 205.767 285.079 c 4
 205.236 286.718 204.696 288.311 204.565 288.619 c 4
 204.435 288.927 204.287 289.348 204.238 289.553 c 4
 204.188 289.759 203.86 291.02 203.508 292.355 c 4
 203.156 293.692 202.819 295.121 202.76 295.532 c 4
 202.7 295.943 202.396 297.331 202.084 298.615 c 4
 201.772 299.9 201.628 300.97 201.765 300.992 c 4
 202.466 301.11 203.935 300.834 204.329 300.511 c 4
 204.88 300.059 210.18 298.709 211.401 298.709 c 4
 211.889 298.709 212.288 298.561 212.288 298.379 c 4
 212.288 298.197 213.424 297.933 214.811 297.791 c 4
 216.198 297.649 218.174 297.288 219.202 296.987 c 4
 220.229 296.687 222.631 296.352 224.538 296.242 c 4
 226.445 296.134 228.8 295.919 229.771 295.766 c 4
 233.206 295.223 249.105 295.765 249.789 296.447 c 4
 250.063 296.722 249.989 296.841 249.542 296.841 c 4
 249.189 296.841 248.609 296.988 248.252 297.17 c 4
 246.11 298.256 244.077 299.083 243.545 299.083 c 4
 243.208 299.083 242.932 299.251 242.932 299.456 c 4
 242.932 299.662 242.688 299.83 242.392 299.83 c 4
 242.094 299.83 241.06 300.25 240.094 300.765 c 4
 239.127 301.278 238.109 301.698 237.831 301.698 c 4
 237.554 301.698 237.326 301.854 237.326 302.043 c 4
 237.326 302.231 236.822 302.497 236.205 302.633 c 4
 235.589 302.769 235.084 303.026 235.084 303.206 c 4
 235.084 303.385 234.369 303.874 233.496 304.292 c 4
 231.128 305.424 227.896 307.291 227.05 308.017 c 4
 226.639 308.368 225.302 309.318 224.079 310.129 c 4
 222.855 310.938 221.563 311.854 221.207 312.162 c 4
 220.85 312.471 219.19 313.816 217.518 315.152 c 4
 213.943 318.008 206.902 324.855 204.26 328.045 c 4
 203.237 329.278 202.306 330.371 202.188 330.474 c 4
 201.614 330.978 196.964 337.163 196.951 337.441 c 4
 196.943 337.617 196.438 338.344 195.83 339.055 c 4
 195.222 339.767 194.724 340.51 194.724 340.707 c 4
 194.724 340.904 194.488 341.331 194.2 341.655 c 4
 193.913 341.98 193.212 343.087 192.644 344.114 c 4
 192.075 345.142 191.313 346.487 190.949 347.104 c 4
 190.586 347.721 189.662 349.486 188.896 351.027 c 4
 188.13 352.569 187.404 353.915 187.283 354.018 c 4
 187.162 354.12 187.057 354.372 187.049 354.578 c 4
 187.041 354.783 186.765 355.54 186.435 356.26 c 4
 185.589 358.102 184.9 359.745 184.789 360.184 c 4
 184.737 360.389 184.261 361.604 183.73 362.886 c 4
 183.199 364.166 182.766 365.472 182.766 365.787 c 4
 182.766 366.102 182.617 366.651 182.437 367.009 c 4
 181.688 368.489 180.292 373.672 180.465 374.33 c 4
 180.512 374.506 180.37 374.866 180.15 375.131 c 4
 179.779 375.578 179.527 376.695 179.258 379.088 c 4
 179.197 379.619 179.049 380.215 178.928 380.412 c 4
 178.806 380.608 178.603 381.927 178.475 383.342 c 4
 178.348 384.757 178.159 386.051 178.056 386.219 c 4
 177.515 387.095 176.822 406.982 177.306 407.765 c 4
 177.408 407.93 177.586 409.768 177.702 411.85 c 4
 177.967 416.592 178.065 416.882 179.235 416.35 c 4
 179.726 416.126 180.037 415.8 179.929 415.624 c 4
 179.82 415.448 179.888 415.305 180.078 415.305 c 4
 180.454 415.305 185.182 412.307 186.186 411.433 c 4
 186.524 411.137 187.197 410.773 187.681 410.626 c 4
 188.163 410.479 188.818 410.131 189.137 409.852 c 4
 189.727 409.336 193.774 407.066 195.472 406.3 c 4
 195.985 406.068 196.853 405.645 197.397 405.36 c 4
 197.943 405.075 198.638 404.842 198.94 404.842 c 4
 199.243 404.842 199.7 404.589 199.956 404.281 c 4
 200.212 403.973 200.695 403.72 201.029 403.718 c 4
 201.364 403.717 202.119 403.465 202.708 403.157 c 4
 203.297 402.851 203.999 402.6 204.27 402.6 c 4
 204.54 402.6 204.986 402.374 205.261 402.099 c 4
 205.536 401.823 206.179 401.5 206.689 401.379 c 4
 208.048 401.059 213.101 399.575 213.97 399.242 c 4
 214.381 399.084 215.188 398.767 215.763 398.535 c 4
 216.338 398.304 217.295 398.114 217.89 398.114 c 4
 218.484 398.114 219.066 397.96 219.184 397.771 c 4
 219.301 397.581 220.53 397.308 221.915 397.163 c 4
 223.301 397.02 224.734 396.745 225.102 396.554 c 4
 225.469 396.362 223.702 398.296 221.177 400.851 c 4
 216.191 405.894 213.848 408.507 212.33 410.711 c 4
 211.793 411.49 211.06 412.349 210.7 412.617 c 4
 210.34 412.886 210.046 413.33 210.046 413.604 c 4
 210.046 413.88 209.794 414.201 209.485 414.319 c 4
 209.177 414.438 208.925 414.708 208.925 414.922 c 4
 208.925 415.135 208.194 416.358 207.301 417.643 c 4
 206.407 418.926 205.243 420.759 204.713 421.714 c 4
 204.183 422.67 203.346 424.1 202.854 424.891 c 4
 202.36 425.683 201.844 426.582 201.706 426.89 c 4
 201.568 427.198 201.303 427.703 201.116 428.011 c 4
 200.371 429.24 198.036 434.363 196.772 437.541 c 4
 196.036 439.391 195.276 441.24 195.084 441.651 c 4
 194.892 442.062 194.483 443.386 194.177 444.592 c 4
 193.871 445.798 193.472 446.976 193.289 447.208 c 4
 193.106 447.44 192.953 447.883 192.948 448.191 c 4
 192.943 448.5 192.658 449.761 192.314 450.994 c 4
 191.972 452.228 191.624 453.703 191.542 454.272 c 4
 191.461 454.843 191.286 455.483 191.155 455.695 c 4
 190.899 456.109 190.739 457.027 190.416 459.928 c 4
 190.304 460.936 190.138 461.881 190.047 462.028 c 4
 189.956 462.175 189.793 463.2 189.684 464.306 c 4
 189.575 465.411 189.399 466.904 189.294 467.624 c 4
 189.188 468.344 189.011 471.118 188.899 473.79 c 4
 188.787 476.462 188.685 478.816 188.671 479.022 c 4
 188.657 479.228 188.762 481.666 188.901 484.44 c 4
 189.155 489.445 190.352 498.112 191.533 503.5 c 4
 191.871 505.041 192.24 506.933 192.354 507.704 c 4
 192.468 508.475 192.709 509.105 192.891 509.105 c 4
 193.072 509.105 193.328 509.781 193.461 510.608 c 4
 193.593 511.435 193.848 512.202 194.025 512.312 c 4
 194.204 512.423 194.351 513.007 194.351 513.611 c 4
 194.351 514.216 194.519 514.711 194.724 514.711 c 4
 194.93 514.711 195.098 515.005 195.098 515.365 c 4
 195.099 516.164 196.517 519.993 196.995 520.484 c 4
 197.185 520.68 197.34 521.118 197.34 521.46 c 4
 197.34 522.017 198.646 524.95 200.241 527.978 c 4
 200.565 528.594 201.394 530.233 202.081 531.621 c 4
 202.769 533.009 203.483 534.144 203.669 534.144 c 4
 203.855 534.144 204.118 534.648 204.254 535.265 c 4
 204.389 535.881 204.62 536.386 204.767 536.386 c 4
 204.913 536.386 205.663 537.465 206.435 538.783 c 4
 207.206 540.102 208.082 541.383 208.381 541.632 c 4
 208.68 541.88 208.925 542.294 208.925 542.552 c 4
 208.925 542.81 209.2 543.249 209.536 543.528 c 4
 209.872 543.808 210.56 544.688 211.062 545.485 c 4
 212.043 547.038 212.21 547 213.277 544.979 c 4
 213.658 544.259 214.307 543.165 214.718 542.549 c 4
 215.718 541.048 216.294 540.146 217.063 538.872 c 4
 217.418 538.287 218.254 537.078 218.922 536.185 c 4
 219.59 535.292 220.136 534.45 220.136 534.313 c 4
 220.136 534.176 220.683 533.376 221.351 532.534 c 4
 222.019 531.692 222.733 530.724 222.938 530.381 c 4
 223.686 529.137 224.838 527.538 227.366 524.24 c 4
 228.784 522.391 230.028 520.66 230.131 520.396 c 4
 230.233 520.131 230.799 519.374 231.388 518.714 c 4
 231.977 518.054 233.642 516 235.087 514.15 c 4
 238.725 509.497 240.236 507.69 244.465 502.939 c 4
 245.562 501.706 246.802 500.292 247.219 499.797 c 4
 247.636 499.303 248.649 498.196 249.472 497.338 c 4
 251.347 495.382 254.397 492.222 254.889 491.728 c 4
 263.447 483.115 265.682 480.919 267.622 479.209 c 4
 268.905 478.078 270.589 476.564 271.362 475.846 c 4
 272.989 474.332 274.929 472.617 276.223 471.549 c 4
 276.72 471.138 278.323 469.793 279.786 468.559 c 4
 281.248 467.325 283.754 465.307 285.353 464.073 c 4
 286.952 462.841 288.782 461.367 289.42 460.8 c 4
 290.058 460.232 290.958 459.668 291.42 459.545 c 4
 291.883 459.422 292.261 459.175 292.261 458.997 c 4
 292.261 458.728 295.322 456.408 299.115 453.804 c 4
 299.56 453.499 300.057 453.036 300.221 452.775 c 4
 300.386 452.515 300.706 452.302 300.934 452.302 c 4
 301.16 452.302 301.948 451.84 302.684 451.274 c 4
 304.037 450.234 305.066 449.567 306.088 449.067 c 4
 306.396 448.917 306.854 448.616 307.103 448.399 c 4
 308.292 447.366 308.632 447.144 309.387 446.903 c 4
 309.834 446.762 310.199 446.519 310.199 446.364 c 4
 310.199 446.208 310.938 445.713 311.84 445.262 c 4
 312.742 444.812 313.688 444.193 313.94 443.888 c 4
 314.194 443.583 314.561 443.333 314.754 443.333 c 4
 314.948 443.333 315.658 442.913 316.332 442.398 c 4
 317.006 441.885 317.709 441.464 317.896 441.462 c 4
 318.081 441.461 319.406 440.704 320.838 439.78 c 4
 322.271 438.856 323.658 438.102 323.922 438.102 c 4
 324.185 438.102 324.399 437.951 324.399 437.769 c 4
 324.399 437.585 325.03 437.154 325.801 436.812 c 4
 327.645 435.992 329.398 435.054 329.632 434.764 c 4
 329.734 434.635 330.533 434.215 331.407 433.83 c 4
 332.28 433.444 332.995 432.987 332.995 432.812 c 4
 332.995 432.639 333.213 432.495 333.479 432.495 c 4
 333.745 432.495 335.775 431.57 337.99 430.44 c 4
 340.204 429.31 342.243 428.385 342.52 428.385 c 4
 342.797 428.385 343.079 428.247 343.147 428.078 c 4
 343.278 427.757 349.38 424.647 349.881 424.647 c 4
 350.039 424.647 351.477 424.05 353.073 423.319 c 4
 354.671 422.589 356.398 421.814 356.912 421.599 c 4
 357.426 421.383 358.351 420.983 358.968 420.712 c 4
 360.67 419.963 362.392 419.276 365.881 417.958 c 4
 367.628 417.298 369.315 416.62 369.631 416.452 c 4
 369.945 416.285 370.744 416.028 371.405 415.884 c 4
 372.066 415.738 372.607 415.465 372.607 415.275 c 4
 372.607 415.086 372.902 414.929 373.262 414.926 c 4
 374.078 414.919 378.096 413.679 378.45 413.325 c 4
 378.594 413.181 379.168 413.063 379.725 413.063 c 4
 380.282 413.063 380.947 412.811 381.203 412.503 c 4
 381.459 412.194 381.93 411.942 382.25 411.942 c 4
 382.914 411.942 385.185 411.263 386.149 410.774 c 4
 386.507 410.595 387.211 410.447 387.716 410.447 c 4
 388.221 410.447 388.737 410.279 388.864 410.073 c 4
 388.991 409.868 389.556 409.699 390.119 409.699 c 4
 390.683 409.699 391.305 409.539 391.501 409.342 c 4
 391.847 408.997 398.538 407.19 400.822 406.826 c 4
 401.439 406.728 402.477 406.407 403.128 406.115 c 4
 403.778 405.822 405.124 405.478 406.117 405.348 c 4
 407.11 405.218 408.091 404.983 408.297 404.826 c 4
 408.502 404.669 409.68 404.419 410.913 404.271 c 4
 412.146 404.123 413.323 403.875 413.528 403.721 c 4
 413.734 403.565 414.84 403.325 415.986 403.188 c 6
 418.071 402.936 l 5
 417.753 400.618 l 6
 417.578 399.344 411.382 353.737 403.983 299.27 c 4
 396.585 244.802 390.438 199.775 390.322 199.21 c 4
 390.189 198.56 389.884 198.195 389.488 198.219 c 4
 389.145 198.239 366.498 201.335 339.161 205.099 c 4
633.684 199.183 m 4
 633.565 199.763 627.415 244.802 620.017 299.27 c 4
 612.618 353.737 606.422 399.344 606.247 400.618 c 6
 605.929 402.935 l 5
 608.014 403.187 l 6
 609.16 403.325 610.266 403.565 610.472 403.72 c 4
 610.677 403.875 611.854 404.123 613.087 404.271 c 4
 614.32 404.419 615.498 404.668 615.703 404.825 c 4
 615.909 404.983 616.89 405.218 617.883 405.348 c 4
 618.876 405.477 620.222 405.822 620.872 406.115 c 4
 621.523 406.407 622.561 406.728 623.178 406.826 c 4
 625.461 407.19 632.153 408.996 632.499 409.342 c 4
 632.695 409.538 633.317 409.699 633.881 409.699 c 4
 634.444 409.699 635.009 409.867 635.136 410.073 c 4
 635.263 410.278 635.779 410.447 636.284 410.447 c 4
 636.789 410.447 637.493 410.595 637.851 410.774 c 4
 638.815 411.263 641.086 411.941 641.75 411.941 c 4
 642.07 411.941 642.541 412.194 642.797 412.502 c 4
 643.053 412.811 643.718 413.062 644.275 413.062 c 4
 644.832 413.062 645.406 413.181 645.55 413.324 c 4
 645.904 413.679 649.922 414.919 650.738 414.926 c 4
 651.098 414.929 651.393 415.086 651.393 415.275 c 4
 651.393 415.465 651.934 415.738 652.595 415.884 c 4
 653.256 416.028 654.055 416.284 654.369 416.452 c 4
 654.685 416.62 656.372 417.297 658.119 417.958 c 4
 661.608 419.276 663.33 419.963 665.032 420.712 c 4
 665.649 420.983 666.574 421.382 667.088 421.599 c 4
 667.602 421.814 669.329 422.589 670.927 423.319 c 4
 672.523 424.05 673.961 424.647 674.119 424.647 c 4
 674.62 424.647 680.722 427.757 680.853 428.078 c 4
 680.921 428.247 681.203 428.385 681.48 428.385 c 4
 681.757 428.385 683.796 429.31 686.01 430.44 c 4
 688.225 431.57 690.255 432.495 690.521 432.495 c 4
 690.787 432.495 691.005 432.638 691.005 432.812 c 4
 691.005 432.986 691.72 433.444 692.593 433.83 c 4
 693.467 434.215 694.266 434.635 694.368 434.763 c 4
 694.602 435.054 696.355 435.992 698.199 436.812 c 4
 698.97 437.154 699.601 437.585 699.601 437.768 c 4
 699.601 437.951 699.815 438.101 700.078 438.101 c 4
 700.342 438.101 701.729 438.856 703.162 439.78 c 4
 704.594 440.704 705.919 441.46 706.104 441.462 c 4
 706.291 441.463 706.994 441.885 707.668 442.398 c 4
 708.342 442.912 709.052 443.333 709.246 443.333 c 4
 709.439 443.333 709.806 443.583 710.059 443.888 c 4
 710.312 444.192 711.258 444.812 712.16 445.262 c 4
 713.062 445.713 713.801 446.208 713.801 446.363 c 4
 713.801 446.519 714.172 446.764 714.624 446.907 c 4
 715.077 447.051 715.66 447.356 715.919 447.586 c 4
 716.872 448.431 717.363 448.796 717.912 449.065 c 4
 718.943 449.573 719.969 450.238 721.316 451.274 c 4
 722.052 451.839 722.84 452.302 723.066 452.302 c 4
 723.294 452.302 723.614 452.515 723.779 452.775 c 4
 723.943 453.036 724.44 453.498 724.885 453.803 c 4
 728.677 456.408 731.738 458.728 731.738 458.996 c 4
 731.738 459.175 732.117 459.422 732.58 459.545 c 4
 733.042 459.667 733.942 460.232 734.58 460.8 c 4
 735.218 461.367 737.048 462.84 738.647 464.073 c 4
 740.246 465.307 742.751 467.325 744.214 468.559 c 4
 745.677 469.792 747.28 471.138 747.777 471.548 c 4
 749.071 472.617 751.011 474.331 752.638 475.845 c 4
 753.411 476.564 755.094 478.078 756.377 479.209 c 4
 758.318 480.919 760.553 483.115 769.111 491.728 c 4
 769.603 492.222 772.653 495.382 774.528 497.338 c 4
 775.351 498.195 776.364 499.302 776.781 499.797 c 4
 777.198 500.292 778.438 501.706 779.535 502.938 c 4
 783.764 507.689 785.275 509.497 788.912 514.15 c 4
 790.358 516 792.023 518.054 792.612 518.714 c 4
 793.201 519.374 793.767 520.13 793.869 520.396 c 4
 793.972 520.66 795.216 522.391 796.634 524.24 c 4
 799.162 527.537 800.314 529.136 801.062 530.381 c 4
 801.267 530.723 801.981 531.692 802.649 532.533 c 4
 803.317 533.375 803.864 534.176 803.864 534.312 c 4
 803.864 534.45 804.41 535.292 805.078 536.185 c 4
 805.746 537.077 806.582 538.286 806.937 538.872 c 4
 807.706 540.146 808.282 541.048 809.283 542.549 c 4
 809.693 543.165 810.342 544.259 810.723 544.979 c 4
 811.791 547 811.957 547.038 812.938 545.485 c 4
 813.44 544.688 814.128 543.808 814.464 543.528 c 4
 814.8 543.249 815.075 542.81 815.075 542.552 c 4
 815.075 542.294 815.32 541.88 815.619 541.631 c 4
 815.918 541.383 816.794 540.101 817.565 538.782 c 4
 818.336 537.464 819.087 536.386 819.233 536.386 c 4
 819.38 536.386 819.611 535.881 819.746 535.265 c 4
 819.882 534.647 820.145 534.144 820.331 534.144 c 4
 820.517 534.144 821.231 533.008 821.919 531.621 c 4
 822.606 530.233 823.435 528.594 823.759 527.978 c 4
 825.354 524.95 826.66 522.017 826.66 521.46 c 4
 826.66 521.118 826.815 520.68 827.005 520.484 c 4
 827.483 519.993 828.901 516.163 828.902 515.364 c 4
 828.902 515.005 829.07 514.711 829.275 514.711 c 4
 829.481 514.711 829.649 514.216 829.649 513.611 c 4
 829.649 513.007 829.796 512.422 829.975 512.312 c 4
 830.152 512.201 830.407 511.435 830.539 510.608 c 4
 830.672 509.781 830.928 509.104 831.109 509.104 c 4
 831.291 509.104 831.532 508.475 831.646 507.704 c 4
 831.76 506.933 832.129 505.041 832.467 503.499 c 4
 833.648 498.112 834.845 489.444 835.099 484.44 c 4
 835.238 481.666 835.343 479.228 835.329 479.021 c 4
 835.315 478.816 835.213 476.462 835.101 473.79 c 4
 834.988 471.118 834.811 468.343 834.705 467.624 c 4
 834.601 466.904 834.425 465.411 834.316 464.306 c 4
 834.207 463.199 834.044 462.175 833.953 462.027 c 4
 833.862 461.881 833.695 460.936 833.584 459.927 c 4
 833.261 457.026 833.101 456.109 832.845 455.695 c 4
 832.713 455.482 832.539 454.843 832.457 454.272 c 4
 832.376 453.702 832.028 452.228 831.686 450.994 c 4
 831.342 449.761 831.057 448.499 831.052 448.191 c 4
 831.047 447.883 830.894 447.44 830.711 447.208 c 4
 830.528 446.976 830.129 445.798 829.822 444.592 c 4
 829.517 443.386 829.108 442.062 828.916 441.651 c 4
 828.723 441.24 827.964 439.391 827.228 437.54 c 4
 826.492 435.69 825.323 433 824.631 431.562 c 4
 823.938 430.122 823.272 428.693 823.149 428.385 c 4
 823.027 428.076 822.716 427.494 822.458 427.091 c 4
 821.649 425.828 820.289 423.521 819.287 421.714 c 4
 818.757 420.759 817.624 418.968 816.77 417.734 c 4
 815.915 416.501 815.105 415.197 814.971 414.838 c 4
 814.835 414.479 814.551 414.184 814.339 414.184 c 4
 814.127 414.184 813.954 413.941 813.954 413.645 c 4
 813.954 413.348 813.659 412.886 813.3 412.617 c 4
 812.94 412.349 812.207 411.49 811.67 410.71 c 4
 810.152 408.507 807.809 405.894 802.822 400.851 c 4
 800.297 398.296 798.531 396.361 798.898 396.553 c 4
 799.266 396.744 800.699 397.019 802.085 397.163 c 4
 803.47 397.308 804.699 397.581 804.816 397.771 c 4
 804.934 397.96 805.516 398.114 806.11 398.114 c 4
 806.705 398.114 807.662 398.304 808.237 398.535 c 4
 808.812 398.766 809.619 399.084 810.03 399.241 c 4
 810.899 399.575 815.952 401.059 817.311 401.379 c 4
 817.821 401.5 818.464 401.823 818.738 402.099 c 4
 819.014 402.374 819.46 402.599 819.73 402.599 c 4
 820 402.599 820.703 402.851 821.292 403.157 c 4
 821.881 403.464 822.636 403.717 822.971 403.718 c 4
 823.305 403.719 823.788 403.973 824.044 404.28 c 4
 824.3 404.589 824.757 404.841 825.06 404.841 c 4
 825.362 404.841 826.057 405.074 826.603 405.359 c 4
 827.147 405.645 828.015 406.068 828.528 406.3 c 4
 830.226 407.066 834.273 409.336 834.863 409.852 c 4
 835.182 410.13 835.837 410.479 836.319 410.626 c 4
 836.803 410.773 837.475 411.137 837.814 411.433 c 4
 838.817 412.307 843.546 415.305 843.922 415.305 c 4
 844.112 415.305 844.18 415.448 844.071 415.624 c 4
 843.963 415.8 844.274 416.126 844.765 416.349 c 4
 845.934 416.882 846.033 416.592 846.298 411.849 c 4
 846.414 409.768 846.592 407.93 846.694 407.765 c 4
 847.178 406.982 846.485 387.095 845.944 386.219 c 4
 845.841 386.051 845.652 384.757 845.525 383.342 c 4
 845.397 381.927 845.194 380.608 845.072 380.411 c 4
 844.951 380.215 844.803 379.619 844.742 379.087 c 4
 844.473 376.695 844.221 375.578 843.85 375.131 c 4
 843.63 374.866 843.488 374.506 843.535 374.33 c 4
 843.708 373.672 842.312 368.489 841.563 367.009 c 4
 841.383 366.651 841.234 366.102 841.234 365.786 c 4
 841.234 365.472 840.801 364.166 840.27 362.886 c 4
 839.739 361.604 839.263 360.389 839.211 360.184 c 4
 839.1 359.745 838.411 358.102 837.565 356.26 c 4
 837.235 355.54 836.959 354.783 836.951 354.578 c 4
 836.943 354.372 836.838 354.12 836.717 354.018 c 4
 836.596 353.914 835.87 352.569 835.104 351.027 c 4
 834.338 349.486 833.414 347.72 833.051 347.104 c 4
 832.687 346.487 831.925 345.142 831.356 344.114 c 4
 830.788 343.086 830.087 341.979 829.799 341.655 c 4
 829.512 341.331 829.275 340.904 829.275 340.707 c 4
 829.275 340.51 828.778 339.767 828.17 339.055 c 4
 827.562 338.343 827.058 337.617 827.049 337.441 c 4
 827.036 337.163 822.386 330.978 821.812 330.474 c 4
 821.694 330.371 820.763 329.278 819.74 328.045 c 4
 817.098 324.855 810.057 318.008 806.482 315.151 c 4
 804.81 313.815 803.149 312.471 802.793 312.162 c 4
 802.437 311.854 801.145 310.938 799.921 310.129 c 4
 798.698 309.318 797.361 308.368 796.95 308.016 c 4
 796.104 307.291 792.872 305.424 790.504 304.291 c 4
 789.631 303.874 788.916 303.385 788.916 303.205 c 4
 788.916 303.025 788.411 302.769 787.795 302.633 c 4
 787.178 302.497 786.674 302.231 786.674 302.042 c 4
 786.674 301.854 786.446 301.698 786.169 301.698 c 4
 785.891 301.698 784.873 301.278 783.906 300.764 c 4
 782.94 300.25 781.906 299.83 781.608 299.83 c 4
 781.312 299.83 781.068 299.662 781.068 299.456 c 4
 781.068 299.251 780.792 299.082 780.455 299.082 c 4
 779.923 299.082 777.89 298.256 775.748 297.169 c 4
 775.391 296.988 774.811 296.84 774.458 296.84 c 4
 774.011 296.84 773.937 296.722 774.211 296.447 c 4
 774.895 295.764 790.794 295.222 794.229 295.765 c 4
 795.2 295.919 797.555 296.134 799.462 296.242 c 4
 801.369 296.352 803.771 296.687 804.798 296.987 c 4
 805.826 297.288 807.802 297.649 809.189 297.791 c 4
 810.576 297.933 811.712 298.197 811.712 298.379 c 4
 811.712 298.561 812.111 298.709 812.599 298.709 c 4
 813.82 298.709 819.121 300.059 819.671 300.511 c 4
 820.065 300.834 821.534 301.109 822.236 300.992 c 4
 822.372 300.97 822.228 299.899 821.916 298.615 c 4
 821.604 297.331 821.3 295.943 821.24 295.532 c 4
 821.181 295.121 820.844 293.691 820.492 292.355 c 4
 820.14 291.02 819.812 289.759 819.762 289.553 c 4
 819.713 289.348 819.565 288.927 819.435 288.618 c 4
 819.304 288.311 818.764 286.717 818.233 285.078 c 4
 817.704 283.439 817.093 281.884 816.875 281.622 c 4
 816.657 281.359 816.571 281.145 816.685 281.145 c 4
 816.942 281.145 815.136 276.639 814.632 276.022 c 4
 814.43 275.774 814.372 275.396 814.505 275.182 c 4
 814.637 274.967 814.6 274.792 814.422 274.792 c 4
 814.244 274.792 813.821 274.161 813.482 273.39 c 4
 811.759 269.464 811.097 268.19 810.25 267.171 c 4
 809.977 266.84 809.877 266.57 810.03 266.57 c 4
 810.184 266.57 810.084 266.3 809.811 265.97 c 4
 809.312 265.37 808.731 264.431 807.985 263.02 c 4
 806.938 261.04 803.414 255.956 802.854 255.616 c 4
 802.579 255.449 802.447 255.16 802.562 254.975 c 4
 802.678 254.788 802.429 254.422 802.01 254.16 c 4
 801.591 253.898 801.248 253.474 801.248 253.217 c 4
 801.248 252.96 800.912 252.539 800.501 252.282 c 4
 800.09 252.025 799.75 251.646 799.747 251.438 c 4
 799.743 251.231 798.986 250.258 798.065 249.275 c 4
 797.144 248.293 796.39 247.413 796.39 247.319 c 4
 796.39 246.996 787.597 238.306 785.179 236.239 c 4
 781.944 233.476 775.141 228.453 774.09 228.054 c 4
 773.628 227.878 772.944 227.434 772.569 227.065 c 4
 772.195 226.697 771.306 226.097 770.593 225.73 c 4
 768.597 224.705 767.074 223.807 766.863 223.53 c 4
 766.759 223.393 766.211 223.163 765.646 223.021 c 4
 765.08 222.88 764.528 222.619 764.419 222.441 c 4
 764.15 222.007 758.646 219.423 755.75 218.371 c 4
 754.465 217.905 753.414 217.376 753.414 217.195 c 4
 753.414 217.015 753.086 216.867 752.684 216.867 c 4
 752.282 216.867 751.568 216.71 751.096 216.519 c 4
 750.624 216.327 749.229 215.891 747.995 215.548 c 4
 746.762 215.206 744.932 214.606 743.928 214.215 c 4
 742.924 213.824 741.621 213.504 741.031 213.504 c 4
 740.442 213.504 739.961 213.359 739.961 213.183 c 4
 739.961 213.006 739.04 212.766 737.916 212.65 c 4
 736.791 212.534 735.32 212.256 734.646 212.032 c 4
 733.972 211.809 711.643 208.686 685.025 205.093 c 4
 658.408 201.499 636.017 198.462 635.265 198.344 c 4
 633.998 198.144 633.884 198.204 633.684 199.183 c 4
EndSplineSet
Validated: 524329
EndChar

StartChar: web
Encoding: 61441 61441 1
Width: 1024
VWidth: 0
Flags: HW
LayerCount: 2
Fore
SplineSet
794 352 m 5
 748 358 l 5
 744 361 l 5
 748 370 l 5
 754 377 l 5
 762 377 l 5
 792 358 l 5
 794 352 l 5
738 459 m 5
 690 419 l 5
 671 426 l 5
 682 434 l 5
 719 497 l 5
 712 468 l 5
 719 462 l 5
 734 460 l 5
 738 459 l 5
511 660 m 4
 707 660 869 498 869 302 c 4
 869 106 707 -56 511 -56 c 4
 315 -56 155 106 155 302 c 4
 155 498 315 660 511 660 c 4
631 414 m 5
 609 447 l 5
 609 414 l 5
 616 400 l 5
 629 403 l 5
 631 414 l 5
628 492 m 5
 631 500 l 5
 625 504 l 5
 613 500 l 5
 604 503 l 5
 604 490 l 5
 604 487 l 5
 618 485 l 5
 628 492 l 5
432 604 m 5
 418 595 l 5
 436 596 l 5
 472 618 l 5
 461 616 449 615 438 612 c 5
 432 604 l 5
396 599 m 5
 396 584 l 5
 408 575 l 5
 424 574 l 5
 433 583 l 5
 427 583 l 5
 404 596 l 5
 396 599 l 5
349 554 m 5
 349 550 l 5
 358 550 l 5
 365 556 l 5
 366 565 l 5
 360 567 l 5
 349 554 l 5
286 528 m 5
 285 526 l 5
 300 516 l 5
 324 528 l 5
 341 546 l 5
 342 564 l 5
 326 560 l 5
 324 562 l 5
 313 553 304 546 294 536 c 5
 295 534 l 5
 286 528 l 5
343 515 m 5
 344 519 347 520 349 524 c 5
 348 528 l 5
 341 524 l 5
 286 514 l 5
 275 519 l 5
 219 461 188 384 189 298 c 4
 189 297 191 296 191 295 c 6
 198 291 l 5
 227 242 l 5
 314 204 l 5
 326 191 l 5
 326 172 l 5
 316 146 l 5
 315 132 l 5
 353 60 l 5
 354 18 l 5
 375 6 396 -3 418 -10 c 5
 460 42 l 5
 492 68 l 5
 514 135 l 5
 498 146 l 5
 451 160 l 5
 426 196 l 5
 391 208 l 5
 314 210 l 5
 290 252 l 5
 282 252 l 5
 264 242 l 5
 260 247 257 252 257 262 c 5
 260 272 263 278 270 287 c 5
 285 295 l 5
 321 288 l 5
 326 273 l 5
 339 270 l 5
 338 292 l 5
 368 338 l 5
 436 375 l 5
 426 376 l 5
 408 390 l 5
 451 402 l 5
 454 398 l 5
 454 393 449 390 445 387 c 5
 450 382 l 5
 460 382 l 5
 468 384 l 5
 439 456 l 5
 436 455 l 5
 401 472 l 5
 391 465 l 5
 371 412 l 5
 360 420 l 5
 339 432 l 5
 324 448 l 5
 341 474 l 5
 393 515 l 5
 401 535 l 5
 426 520 l 5
 430 513 l 5
 403 491 l 5
 429 474 l 5
 435 479 l 5
 436 478 l 5
 448 495 l 5
 445 498 l 5
 460 515 l 5
 449 534 l 5
 419 558 l 5
 435 560 l 5
 435 566 l 5
 426 567 l 5
 401 554 l 5
 408 566 l 5
 391 560 l 5
 390 521 l 5
 376 513 l 5
 368 521 l 5
 391 566 l 5
 387 569 387 569 383 567 c 5
 343 515 l 5
384 484 m 5
 383 492 l 5
 380 497 l 5
 376 498 l 5
 366 484 l 5
 366 482 l 5
 381 482 l 5
 384 484 l 5
504 474 m 5
 516 463 l 5
 607 541 l 5
 628 600 l 5
 587 616 542 623 492 620 c 5
 490 617 l 5
 480 606 l 5
 478 599 l 5
 481 591 l 5
 505 589 l 5
 511 544 l 5
 500 516 l 5
 497 496 l 5
 504 474 l 5
698 37 m 5
 767 90 831 179 834 302 c 5
 838 378 807 486 727 539 c 5
 717 540 l 5
 698 533 l 5
 652 468 l 5
 654 460 l 5
 676 443 l 5
 676 433 l 5
 612 388 l 5
 613 382 l 5
 618 374 l 5
 621 366 l 5
 593 355 l 5
 592 341 l 5
 593 324 l 5
 552 244 l 5
 552 208 l 5
 582 190 l 5
 633 190 l 5
 654 184 l 5
 698 37 l 5
679 367 m 5
 681 368 684 369 686 370 c 5
 724 331 l 5
 724 331 l 5
 724 346 l 5
 729 339 l 5
 778 327 l 5
 776 313 l 5
 706 298 l 5
 694 303 l 5
 667 328 l 5
 609 324 l 5
 653 358 l 5
 675 358 l 5
 688 336 l 5
 692 337 694 339 696 343 c 5
 695 351 l 5
 680 363 l 5
 678 370 l 5
 679 367 l 5
EndSplineSet
Validated: 37
EndChar

StartChar: compose
Encoding: 61442 61442 2
Width: 1024
VWidth: 0
Flags: HW
LayerCount: 2
Fore
SplineSet
967 623 m 4
 953 623 936 601 950 586 c 5
 955 579 981 571 996 566 c 5
 983 545 892 525 859 539 c 4
 846 546 824 528 836 508 c 4
 840 502 877 473 895 461 c 5
 882 449 760 454 745 466 c 5
 727 472 705 453 718 435 c 5
 797 383 l 5
 791 369 679 315 652 314 c 5
 627 331 578 332 545 314 c 4
 508 296 430 223 392 172 c 5
 379 149 350 123 291 105 c 5
 476 401 820 680 1038 678 c 5
 1037 652 996 625 967 623 c 4
508 518 m 5
 230 518 l 6
 220 518 210 516 210 504 c 6
 210 76 l 6
 210 69 215 61 223 61 c 6
 638 61 l 6
 650 61 649 67 649 73 c 6
 649 182 l 5
 663 167 731 192 735 205 c 5
 735 54 l 6
 735 18 703 -22 663 -22 c 6
 202 -22 l 6
 165 -22 126 15 126 54 c 6
 126 528 l 6
 126 562 162 598 202 598 c 6
 580 598 l 5
 543 568 538 554 508 518 c 5
EndSplineSet
Validated: 33
EndChar

StartChar: color_palette
Encoding: 61443 61443 3
Width: 1024
VWidth: 0
Flags: HW
LayerCount: 2
Fore
SplineSet
667 155 m 5
 672 149 700 171 704 178 c 5
 746 171 778 46 709 -3 c 5
 287 -260 -124 270 363 605 c 5
 538 693 649 574 628 488 c 4
 603 378 535 346 581 255 c 5
 555 262 476 218 469 183 c 4
 454 117 411 115 382 117 c 5
 379 112 374 103 367 98 c 5
 365 74 427 38 499 45 c 5
 553 -37 666 -11 644 99 c 5
 654 103 668 128 667 135 c 6
 667 155 l 5
393 94 m 5
 444 91 478 124 488 169 c 5
 491 198 533 227 570 228 c 5
 568 203 596 145 647 148 c 5
 639 64 473 43 393 94 c 5
606 260 m 5
 838 470 l 5
 900 527 948 473 891 419 c 5
 682 187 l 5
 620 137 559 221 606 260 c 5
365 196 m 4
 349 212 328 217 306 214 c 4
 293 211 281 206 271 196 c 4
 225 150 265 70 331 82 c 4
 382 92 402 159 365 196 c 4
354 401 m 4
 342 407 329 408 316 406 c 4
 304 403 297 399 287 391 c 4
 246 352 280 282 337 292 c 4
 394 302 401 377 354 401 c 4
489 508 m 4
 479 513 469 512 458 510 c 4
 444 506 432 500 424 487 c 4
 403 451 437 404 478 414 c 4
 525 424 534 488 489 508 c 4
EndSplineSet
Validated: 33
EndChar

StartChar: camera
Encoding: 61444 61444 4
Width: 1024
VWidth: 0
Flags: H
LayerCount: 2
Fore
SplineSet
644 274 m 0
 644 201 585 142 512 142 c 0
 439 142 380 201 380 274 c 0
 380 347 439 406 512 406 c 0
 585 406 644 347 644 274 c 0
870 526 m 1
 870 526 870 511 870 493 c 2
 870 61 l 2
 870 43 871 28 870 28 c 0
 153 28 l 1
 153 28 153 43 153 61 c 2
 153 61 153 414 153 430 c 0
 153 467 l 1
 310 518 l 1
 310 518 333 526 354 526 c 0
 399 526 l 1
 399 554 l 2
 399 590 399 586 399 586 c 1
 627 586 l 1
 627 586 627 590 627 554 c 2
 627 526 l 1
 870 526 l 1
512 81 m 0
 619 81 705 167 705 274 c 0
 705 381 619 467 512 467 c 0
 405 467 319 381 319 274 c 0
 319 167 405 81 512 81 c 0
298 543 m 1
 183 504 l 1
 183 557 l 2
 183 567 l 1
 298 567 l 1
 298 567 298 563 298 557 c 2
 298 543 l 1
EndSplineSet
Validated: 37
EndChar

StartChar: new_message
Encoding: 61445 61445 5
Width: 1024
VWidth: 0
Flags: H
LayerCount: 2
Fore
SplineSet
26 546 m 1
 379 371 l 1
 733 546 l 1
 733 177 l 1
 26 177 l 1
 26 546 l 1
26 701 m 1
 733 701 l 1
 733 603 l 1
 379 427 l 1
 26 603 l 1
 26 701 l 1
857 101 m 1
 998 101 l 1
 998 56 l 1
 857 56 l 1
 857 -87 l 1
 812 -87 l 1
 812 56 l 1
 671 56 l 1
 671 101 l 1
 812 101 l 1
 812 244 l 1
 857 244 l 1
 857 101 l 1
EndSplineSet
Validated: 1
EndChar

StartChar: server
Encoding: 61446 61446 6
Width: 1024
VWidth: 0
Flags: H
LayerCount: 2
Fore
SplineSet
490 341 m 1
 491 275 l 2
 491 261 490 248 473 243 c 0
 453 238 443 254 443 271 c 2
 443 317 l 2
 443 335 440 350 461 358 c 1
 474 360 486 355 490 341 c 1
428 342 m 1
 429 276 l 2
 429 262 428 248 411 243 c 0
 391 238 381 255 381 272 c 2
 381 318 l 2
 381 336 378 351 399 359 c 1
 412 361 424 356 428 342 c 1
367 343 m 1
 369 277 l 2
 369 263 368 249 351 244 c 0
 331 239 321 256 321 273 c 2
 321 319 l 2
 321 337 318 352 339 360 c 1
 352 362 363 357 367 343 c 1
304 342 m 1
 305 276 l 2
 305 262 304 248 287 243 c 0
 267 238 257 255 257 272 c 2
 257 318 l 2
 257 336 254 351 275 359 c 1
 288 361 300 356 304 342 c 1
744 352 m 0
 761 328 747 294 719 287 c 0
 678 277 649 328 679 358 c 0
 685 364 691 366 699 369 c 0
 717 372 733 368 744 352 c 0
335 610 m 1
 221 454 l 1
 797 454 l 1
 695 610 l 1
 335 610 l 1
221 396 m 1
 221 214 l 1
 797 214 l 1
 797 396 l 1
 221 396 l 1
433 -32 m 0
 221 -32 l 2
 181 -32 181 36 221 36 c 2
 221 36 359 36 433 36 c 0
 460 36 459 -32 433 -32 c 0
587 36 m 0
 797 36 l 2
 847 36 847 -32 797 -32 c 2
 587 -32 l 2
 567 -32 567 36 587 36 c 0
547 45 m 2
 547 45 l 1
 583 18 574 -46 523 -55 c 0
 466 -65 434 5 475 42 c 0
 476 43 478 44 479 45 c 0
 479 46 l 0
 479 150 l 1
 159 150 l 1
 159 454 l 1
 289 670 l 1
 729 670 l 1
 865 454 l 1
 865 150 l 1
 865 150 711 150 547 150 c 1
 547 45 l 2
EndSplineSet
Validated: 37
EndChar

StartChar: gallery
Encoding: 61447 61447 7
Width: 1024
VWidth: 0
Flags: H
LayerCount: 2
Fore
SplineSet
161 658 m 1
 863 658 l 1
 863 -44 l 1
 161 -44 l 1
 161 658 l 1
816 3 m 1
 816 610 l 1
 209 610 l 1
 209 3 l 1
 816 3 l 1
774 158 m 1
 774 56 l 1
 256 56 l 1
 256 234 l 1
 381 323 l 1
 532 189 l 1
 642 238 l 1
 774 158 l 1
EndSplineSet
Validated: 1
EndChar

StartChar: save
Encoding: 61448 61448 8
Width: 1024
VWidth: 0
Flags: H
LayerCount: 2
Fore
SplineSet
588 447 m 1
 443 447 l 1
 443 633 l 1
 588 633 l 1
 588 447 l 1
 588 447 l 1
692 201 m 1
 692 201 l 1
 319 201 l 1
 319 242 l 1
 692 242 l 1
 692 201 l 1
692 83 m 1
 692 83 l 1
 319 83 l 1
 319 125 l 1
 692 125 l 1
 692 83 l 1
863 518 m 1
 863 -26 l 2
 863 -38 854 -47 842 -47 c 2
 182 -47 l 2
 170 -47 161 -38 161 -26 c 2
 161 640 l 2
 161 652 170 661 182 661 c 2
 268 661 l 1
 268 408 l 1
 648 408 l 1
 648 661 l 1
 719 661 l 1
 863 518 l 1
756 333 m 1
 268 333 l 1
 268 1 l 1
 756 1 l 1
 756 333 l 1
EndSplineSet
Validated: 5
EndChar

StartChar: star
Encoding: 61449 61449 9
Width: 1024
VWidth: 0
Flags: H
LayerCount: 2
Fore
SplineSet
512 704 m 1
 630 427 l 1
 929 401 l 1
 702 203 l 1
 770 -90 l 1
 512 65 l 1
 254 -90 l 1
 322 203 l 1
 95 401 l 1
 394 427 l 1
 512 704 l 1
EndSplineSet
Validated: 1
EndChar

StartChar: search
Encoding: 61450 61450 10
Width: 1024
VWidth: 0
Flags: H
LayerCount: 2
Fore
SplineSet
848 70 m 2
 864 54 855 18 828 -9 c 0
 801 -36 765 -45 749 -29 c 2
 619 101 l 2
 608 112 608 133 619 154 c 1
 563 210 l 1
 467 136 328 144 240 232 c 0
 144 328 144 483 240 579 c 0
 336 675 491 675 587 579 c 0
 675 491 683 352 609 256 c 1
 665 200 l 1
 686 211 707 211 718 200 c 2
 848 70 l 2
276 268 m 0
 352 192 475 192 551 268 c 0
 627 344 627 467 551 543 c 0
 475 619 352 619 276 543 c 0
 200 467 200 344 276 268 c 0
EndSplineSet
Validated: 33
EndChar

StartChar: retweet
Encoding: 61451 61451 11
Width: 947
VWidth: 0
Flags: HW
LayerCount: 2
Fore
SplineSet
374 534 m 1
 469 534 687 534 782 534 c 0
 797 535 812 522 812 506 c 0
 812 427 812 347 812 268 c 1
 854 268 896 268 938 268 c 1
 882 206 825 144 769 82 c 0
 766 77 763 83 761 85 c 0
 706 146 649 207 594 268 c 1
 636 268 678 268 720 268 c 1
 720 326 720 384 720 442 c 1
 675 442 508 442 463 442 c 1
 434 473 403 503 374 534 c 1
255 532 m 0
 258 537 261 530 264 528 c 0
 319 467 375 407 430 346 c 1
 388 346 345 346 303 346 c 1
 303 288 303 230 303 172 c 1
 349 172 520 172 566 172 c 1
 595 141 626 111 655 80 c 1
 559 80 337 81 241 81 c 0
 225 81 211 95 212 110 c 0
 212 189 212 267 212 346 c 1
 170 346 128 346 86 346 c 1
 142 408 198 470 255 532 c 0
EndSplineSet
Validated: 33
EndChar

StartChar: reply
Encoding: 61452 61452 12
Width: 880
VWidth: 0
Flags: HW
LayerCount: 2
Fore
SplineSet
463 431 m 1
 686 434 837 239 873 54 c 1
 769 137 633 253 463 211 c 1
 463 73 l 1
 148 325 l 1
 463 559 l 1
 463 431 l 1
EndSplineSet
Validated: 33
EndChar

StartChar: delete
Encoding: 61453 61453 13
Width: 1024
VWidth: 0
Flags: H
LayerCount: 2
Fore
SplineSet
735 373 m 1
 735 373 l 1
 735 371 l 2
 735 370 l 0
 735 369 l 2
 718 13 l 1
 718 13 l 1
 716 -15 684 -57 512 -57 c 0
 340 -57 308 -15 306 13 c 1
 306 13 l 1
 289 369 l 2
 289 370 l 0
 289 371 l 2
 289 373 l 1
 289 373 l 2
 290 376 291 378 294 381 c 1
 316 358 405 355 512 355 c 0
 619 355 708 358 730 381 c 1
 733 378 735 376 735 373 c 1
618 559 m 1
 705 550 766 531 766 508 c 2
 766 466 l 2
 766 457 757 449 742 442 c 0
 701 423 614 410 512 410 c 0
 410 410 323 423 282 442 c 0
 267 449 258 457 258 466 c 2
 258 508 l 2
 258 530 315 549 397 558 c 1
 397 643 l 2
 397 658 409 671 424 671 c 2
 590 671 l 2
 605 671 618 658 618 643 c 2
 618 559 l 1
450 562 m 2
 470 563 491 564 512 564 c 0
 533 564 553 563 572 562 c 1
 572 597 l 2
 572 612 570 624 567 624 c 0
 564 624 550 624 535 624 c 2
 480 624 l 2
 465 624 450 624 447 624 c 0
 444 624 443 612 443 597 c 2
 443 562 l 1
 450 562 l 2
EndSplineSet
Validated: 5
EndChar

StartChar: add
Encoding: 61454 61454 14
Width: 1024
VWidth: 0
Flags: H
LayerCount: 2
Fore
SplineSet
886 338 m 1
 886 276 l 1
 543 276 l 1
 543 -67 l 1
 481 -67 l 1
 481 276 l 1
 138 276 l 1
 138 338 l 1
 481 338 l 1
 481 681 l 1
 543 681 l 1
 543 338 l 1
 886 338 l 1
EndSplineSet
Validated: 1
EndChar

StartChar: share
Encoding: 61455 61455 15
Width: 1024
VWidth: 0
Flags: H
LayerCount: 2
Fore
SplineSet
746 170 m 0
 809 170 860 119 860 56 c 0
 860 -7 809 -58 746 -58 c 0
 683 -58 632 -7 632 56 c 0
 632 67 633 77 636 87 c 2
 364 233 l 1
 343 209 312 193 278 193 c 0
 215 193 164 244 164 307 c 0
 164 370 215 421 278 421 c 0
 312 421 343 405 364 381 c 1
 636 527 l 2
 633 537 632 547 632 558 c 0
 632 621 683 672 746 672 c 0
 809 672 860 621 860 558 c 0
 860 495 809 444 746 444 c 0
 712 444 680 460 659 484 c 1
 388 338 l 2
 391 328 392 318 392 307 c 0
 392 296 391 286 388 276 c 2
 659 130 l 1
 680 154 712 170 746 170 c 0
EndSplineSet
Validated: 1
EndChar

StartChar: inbox
Encoding: 61456 61456 16
Width: 1024
VWidth: 0
Flags: HW
LayerCount: 2
Fore
SplineSet
512 218 m 5
 321 409 l 5
 416 409 l 5
 416 695 l 5
 607 695 l 5
 607 409 l 5
 703 409 l 5
 512 218 l 5
774 456 m 5
 894 218 l 5
 894 -69 l 5
 130 -69 l 5
 130 218 l 5
 249 456 l 5
 303 456 l 5
 183 218 l 5
 321 218 l 5
 321 113 407 27 512 27 c 4
 617 27 703 113 703 218 c 5
 840 218 l 5
 721 456 l 5
 774 456 l 5
EndSplineSet
Validated: 1
EndChar

StartChar: outbox
Encoding: 61457 61457 17
Width: 1010
VWidth: 0
Flags: HW
LayerCount: 2
Fore
SplineSet
412 494 m 5
 318 494 l 5
 505 682 l 5
 693 494 l 5
 599 494 l 5
 599 213 l 5
 412 213 l 5
 412 494 l 5
763 447 m 5
 881 213 l 5
 881 -69 l 5
 130 -69 l 5
 130 213 l 5
 247 447 l 5
 300 447 l 5
 183 213 l 5
 318 213 l 5
 318 109 401 25 505 25 c 4
 609 25 693 109 693 213 c 5
 828 213 l 5
 711 447 l 5
 763 447 l 5
EndSplineSet
Validated: 1
EndChar

StartChar: copy
Encoding: 61458 61458 18
Width: 1024
VWidth: 0
Flags: H
LayerCount: 2
Fore
SplineSet
640 627 m 1
 256 627 l 1
 256 115 l 1
 288 115 l 1
 288 51 l 1
 256 51 l 1
 192 51 l 1
 192 691 l 1
 704 691 l 1
 704 627 l 1
 704 595 l 1
 640 595 l 1
 640 627 l 1
690 104 m 1
 448 104 l 1
 448 126 l 1
 690 126 l 1
 690 104 l 1
590 168 m 1
 448 168 l 1
 448 190 l 1
 590 190 l 1
 590 168 l 1
633 232 m 1
 448 232 l 1
 448 254 l 1
 633 254 l 1
 633 232 l 1
704 296 m 1
 448 296 l 1
 448 318 l 1
 704 318 l 1
 704 296 l 1
590 360 m 1
 448 360 l 1
 448 382 l 1
 590 382 l 1
 590 360 l 1
768 499 m 1
 384 499 l 1
 384 -13 l 1
 768 -13 l 1
 768 499 l 1
320 -77 m 1
 320 563 l 1
 832 563 l 1
 832 -77 l 1
 320 -77 l 1
EndSplineSet
Validated: 1
EndChar

StartChar: translate
Encoding: 61459 61459 19
Width: 1024
VWidth: 0
Flags: H
LayerCount: 2
Fore
SplineSet
188 631 m 1
 188 278 l 1
 422 278 l 1
 422 278 422 325 422 328 c 0
 421 330 413 334 410 335 c 2
 389 348 l 2
 383 352 368 364 362 362 c 2
 338 346 l 2
 320 334 298 321 278 312 c 0
 269 308 261 303 251 303 c 0
 226 302 210 330 226 350 c 0
 234 360 251 364 262 370 c 0
 281 379 299 391 316 403 c 1
 310 414 303 418 295 427 c 0
 286 437 278 447 271 458 c 0
 265 467 259 476 260 487 c 0
 261 500 267 503 275 512 c 1
 216 512 l 1
 216 574 l 1
 334 574 l 1
 334 602 l 1
 395 602 l 1
 395 574 l 1
 512 574 l 1
 512 512 l 1
 479 512 l 1
 478 499 472 491 466 480 c 0
 456 462 443 444 430 428 c 0
 424 420 416 413 412 404 c 1
 419 400 415 403 422 397 c 1
 422 397 520 397 540 397 c 1
 540 631 l 1
 188 631 l 1
340 512 m 1
 304 511 l 1
 316 505 318 496 325 486 c 0
 335 473 351 453 364 444 c 1
 380 461 405 491 414 512 c 1
 340 512 l 1
762 104 m 1
 714 234 l 1
 697 280 l 2
 692 297 688 296 678 296 c 2
 638 296 l 2
 628 296 628 294 623 280 c 2
 606 234 l 1
 554 94 l 1
 528 24 l 1
 578 24 l 2
 581 24 587 23 589 25 c 0
 592 27 594 35 595 38 c 2
 605 68 l 2
 606 72 609 78 612 80 c 0
 615 82 620 82 623 82 c 2
 696 82 l 2
 699 82 705 82 708 80 c 0
 711 78 713 72 714 68 c 2
 724 40 l 2
 729 25 728 24 740 24 c 2
 791 24 l 1
 762 104 l 1
695 124 m 1
 624 124 l 1
 659 223 l 1
 695 124 l 1
335 217 m 1
 335 130 l 1
 422 130 l 1
 422 217 l 1
 335 217 l 1
422 -77 m 1
 422 40 l 1
 346 40 l 1
 245 130 l 1
 245 217 l 1
 128 217 l 1
 128 691 l 1
 602 691 l 1
 602 691 602 638 602 631 c 2
 602 397 l 1
 896 397 l 1
 896 -77 l 1
 422 -77 l 1
EndSplineSet
Validated: 33
EndChar

StartChar: user
Encoding: 61460 61460 20
Width: 1024
VWidth: 0
Flags: H
LayerCount: 2
Fore
SplineSet
512 615 m 0
 626 615 718 523 718 409 c 0
 718 295 626 204 512 204 c 0
 398 204 306 295 306 409 c 0
 306 523 398 615 512 615 c 0
522 246 m 0
 583 246 638 287 669 348 c 1
 375 348 l 1
 406 287 461 246 522 246 c 0
636 177 m 1
 716 156 778 106 807 -1 c 1
 217 -1 l 1
 246 106 308 156 388 177 c 1
 425 157 467 146 512 146 c 0
 557 146 599 157 636 177 c 1
EndSplineSet
Validated: 1
EndChar

StartChar: users
Encoding: 61461 61461 21
Width: 1024
VWidth: 0
Flags: H
LayerCount: 2
Fore
SplineSet
512 615 m 0
 626 615 718 523 718 409 c 0
 718 295 626 203 512 203 c 0
 398 203 306 295 306 409 c 0
 306 523 398 615 512 615 c 0
522 246 m 0
 583 246 638 287 669 348 c 1
 375 348 l 1
 406 287 461 246 522 246 c 0
289 327 m 1
 292 320 295 313 298 306 c 0
 278 288 252 277 223 277 c 0
 162 277 113 326 113 387 c 0
 113 448 162 498 223 498 c 0
 246 498 267 491 285 479 c 1
 278 457 274 433 274 409 c 0
 274 390 277 372 281 354 c 1
 150 354 l 1
 167 321 196 300 229 300 c 0
 252 300 273 310 289 327 c 1
801 498 m 0
 862 498 911 448 911 387 c 0
 911 326 862 277 801 277 c 0
 772 277 746 288 726 306 c 0
 731 316 735 326 738 337 c 1
 755 314 779 300 806 300 c 0
 839 300 868 321 885 354 c 1
 743 354 l 1
 747 372 750 390 750 409 c 0
 750 433 746 457 739 479 c 1
 757 491 778 498 801 498 c 0
636 177 m 1
 716 156 778 106 807 -1 c 1
 216 -1 l 1
 245 106 308 156 388 177 c 1
 425 157 467 146 512 146 c 0
 557 146 599 157 636 177 c 1
355 223 m 1
 316 210 283 192 255 167 c 1
 64 167 l 1
 79 225 114 251 157 262 c 1
 177 251 199 245 223 245 c 0
 247 245 270 251 290 262 c 1
 315 255 338 244 355 223 c 1
769 167 m 1
 741 192 708 210 669 223 c 1
 686 244 709 255 734 262 c 1
 754 251 777 245 801 245 c 0
 825 245 847 251 867 262 c 1
 910 251 945 225 960 167 c 1
 769 167 l 1
EndSplineSet
Validated: 1
EndChar

StartChar: conversation
Encoding: 61462 61462 22
Width: 512
VWidth: 0
Flags: HW
LayerCount: 2
Fore
SplineSet
384 177 m 0
 287 177 208 256 208 353 c 0
 208 450 287 530 384 530 c 0
 481 530 560 450 560 353 c 0
 560 256 481 177 384 177 c 0
518 301 m 1
 267 301 l 1
 294 249 341 214 393 214 c 0
 446 214 491 249 518 301 c 1
490 154 m 1
 558 136 612 94 637 2 c 1
 131 2 l 1
 156 94 210 136 278 154 c 1
 310 137 346 128 384 128 c 0
 422 128 458 137 490 154 c 1
595 383 m 1
 586 447 547 502 494 535 c 1
 526 581 580 612 640 612 c 0
 737 612 816 533 816 436 c 0
 816 339 737 259 640 259 c 0
 619 259 599 263 580 270 c 1
 585 283 589 296 592 310 c 1
 609 301 628 296 648 296 c 0
 701 296 747 331 774 383 c 1
 595 383 l 1
746 237 m 1
 814 219 868 176 893 84 c 1
 643 84 l 1
 614 134 571 168 514 186 c 1
 529 198 543 212 555 227 c 1
 581 216 610 210 640 210 c 0
 678 210 714 220 746 237 c 1
EndSplineSet
Validated: 1
EndChar

StartChar: send
Encoding: 61463 61463 23
Width: 1024
VWidth: 0
Flags: H
LayerCount: 2
Fore
SplineSet
216 15 m 1
 272 281 l 1
 628 305 l 1
 628 309 l 1
 272 334 l 1
 216 599 l 1
 808 307 l 1
 216 15 l 1
EndSplineSet
Validated: 1
EndChar

StartChar: edit
Encoding: 61464 61464 24
Width: 1024
VWidth: 0
Flags: H
LayerCount: 2
Fore
SplineSet
499 486 m 1
 515 484 561 473 617 417 c 0
 658 376 684 334 687 299 c 1
 436 46 l 1
 436 46 410 76 413 129 c 1
 348 160 337 190 325 215 c 1
 269 213 248 233 248 233 c 1
 499 486 l 1
862 667 m 0
 936 607 914 546 886 517 c 0
 882 513 855 478 837 455 c 1
 836 479 826 522 775 573 c 0
 723 624 676 634 653 636 c 1
 674 653 702 676 711 685 c 0
 737 710 788 727 862 667 c 0
288 184 m 1
 304 133 358 101 378 95 c 1
 377 71 400 26 400 26 c 1
 112 -94 l 1
 227 195 l 1
 227 195 238 184 288 184 c 1
620 609 m 1
 620 609 675 610 744 541 c 0
 814 471 805 422 805 422 c 1
 778 395 l 1
 774 425 752 467 711 507 c 0
 646 571 592 580 592 580 c 1
 620 609 l 1
567 545 m 1
 567 545 619 547 685 481 c 0
 752 414 743 367 743 367 c 1
 717 340 l 1
 713 369 692 409 653 448 c 0
 591 509 539 518 539 518 c 1
 567 545 l 1
EndSplineSet
Validated: 33
EndChar

StartChar: accept
Encoding: 61465 61465 25
Width: 1024
VWidth: 0
Flags: H
LayerCount: 2
Fore
SplineSet
888 537 m 1
 433 77 l 1
 433 77 l 1
 389 33 l 1
 136 284 l 1
 180 328 l 1
 388 121 l 1
 844 581 l 1
 888 537 l 1
EndSplineSet
Validated: 5
EndChar

StartChar: cancel
Encoding: 61466 61466 26
Width: 1024
VWidth: 0
Flags: H
LayerCount: 2
Fore
SplineSet
798 549 m 1
 556 307 l 1
 798 65 l 1
 754 21 l 1
 512 263 l 1
 270 21 l 1
 226 65 l 1
 468 307 l 1
 226 549 l 1
 270 593 l 1
 512 351 l 1
 754 593 l 1
 798 549 l 1
EndSplineSet
Validated: 1
EndChar

StartChar: settings
Encoding: 61467 61467 27
Width: 1024
VWidth: 0
Flags: H
LayerCount: 2
Fore
SplineSet
343 446 m 2
 361 446 l 2
 391 446 416 421 416 391 c 2
 416 223 l 2
 416 193 391 168 361 168 c 2
 343 168 l 2
 313 168 288 193 288 223 c 2
 288 391 l 2
 288 421 313 446 343 446 c 2
663 190 m 2
 681 190 l 2
 711 190 736 165 736 135 c 2
 736 -33 l 2
 736 -63 711 -88 681 -88 c 2
 663 -88 l 2
 633 -88 608 -63 608 -33 c 2
 608 135 l 2
 608 165 633 190 663 190 c 2
663 702 m 2
 681 702 l 2
 711 702 736 677 736 647 c 2
 736 479 l 2
 736 449 711 424 681 424 c 2
 663 424 l 2
 633 424 608 449 608 479 c 2
 608 647 l 2
 608 677 633 702 663 702 c 2
576 584 m 1
 576 542 l 1
 128 542 l 1
 128 584 l 1
 576 584 l 1
896 542 m 1
 768 542 l 1
 768 584 l 1
 896 584 l 1
 896 542 l 1
256 328 m 1
 256 286 l 1
 128 286 l 1
 128 328 l 1
 256 328 l 1
896 286 m 1
 448 286 l 1
 448 328 l 1
 896 328 l 1
 896 286 l 1
576 72 m 1
 576 30 l 1
 128 30 l 1
 128 72 l 1
 576 72 l 1
896 30 m 1
 768 30 l 1
 768 72 l 1
 896 72 l 1
 896 30 l 1
EndSplineSet
Validated: 1
EndChar

StartChar: location
Encoding: 61468 61468 28
Width: 1024
VWidth: 0
Flags: H
LayerCount: 2
Fore
SplineSet
512 456 m 0
 594 456 661 389 661 307 c 0
 661 225 594 158 512 158 c 0
 430 158 363 225 363 307 c 0
 363 389 430 456 512 456 c 0
887 329 m 1
 887 287 l 1
 798 286 l 1
 788 145 675 32 534 21 c 1
 534 -68 l 1
 491 -68 l 1
 491 21 l 1
 350 31 237 144 226 285 c 1
 137 285 l 1
 137 327 l 1
 226 328 l 1
 236 469 349 582 490 593 c 1
 490 682 l 1
 532 682 l 1
 533 593 l 1
 674 583 787 470 798 329 c 1
 887 329 l 1
512 62 m 0
 647 62 757 172 757 307 c 0
 757 442 646 552 511 552 c 0
 376 552 267 442 267 307 c 0
 267 172 377 62 512 62 c 0
EndSplineSet
Validated: 1
EndChar

StartChar: mute
Encoding: 61469 61469 29
Width: 1024
VWidth: 0
Flags: H
LayerCount: 2
Fore
SplineSet
824 615 m 1
 860 573 l 1
 200 -24 l 1
 164 18 l 1
 824 615 l 1
271 167 m 2
 249 167 231 229 231 307 c 0
 231 385 249 447 271 447 c 2
 358 447 l 1
 415 540 505 680 525 680 c 2
 588 680 l 2
 614 680 636 609 648 503 c 1
 613 472 l 1
 606 566 592 630 577 630 c 0
 558 630 533 537 523 409 c 0
 527 407 531 403 534 400 c 2
 276 167 l 1
 271 167 l 2
619 291 m 1
 658 325 l 1
 658 308 l 2
 658 102 628 -66 587 -66 c 2
 525 -66 l 2
 510 -66 452 15 399 92 c 1
 523 204 l 1
 533 77 558 -16 577 -16 c 0
 600 -16 618 121 619 291 c 1
EndSplineSet
Validated: 1
EndChar

StartChar: quote
Encoding: 61470 61470 30
Width: 1024
VWidth: 0
Flags: H
LayerCount: 2
Fore
SplineSet
205 310 m 0
 183 310 164 317 147 334 c 0
 132 349 124 368 124 390 c 0
 124 396 124 400 124 403 c 0
 124 444 133 479 148 507 c 0
 168 543 205 576 258 607 c 1
 282 575 l 1
 250 559 229 539 219 517 c 0
 210 495 204 479 204 470 c 1
 225 470 243 462 258 447 c 0
 276 429 284 410 284 390 c 0
 284 369 276 349 259 333 c 0
 243 317 225 310 205 310 c 0
413 306 m 0
 391 306 372 314 355 330 c 0
 340 345 333 364 333 386 c 0
 333 392 333 396 333 399 c 0
 333 439 341 475 356 503 c 0
 376 539 413 572 467 603 c 1
 490 571 l 1
 458 555 437 535 427 513 c 0
 418 491 413 475 413 466 c 1
 434 466 452 458 467 443 c 0
 484 425 493 406 493 386 c 0
 493 365 484 345 467 329 c 0
 451 313 433 306 413 306 c 0
891 280 m 0
 910 260 919 240 919 217 c 0
 919 213 918 208 916 203 c 0
 916 163 908 129 892 99 c 0
 869 63 831 28 776 -4 c 1
 752 30 l 1
 783 46 804 63 816 83 c 0
 826 104 831 120 831 128 c 1
 807 128 785 137 767 155 c 0
 751 172 743 192 743 216 c 0
 743 240 751 260 768 278 c 0
 787 295 808 304 831 304 c 0
 854 304 874 296 891 280 c 0
682 282 m 0
 701 262 710 241 710 218 c 0
 710 214 708 210 706 205 c 0
 706 165 699 130 683 100 c 0
 660 64 622 30 567 -2 c 1
 542 31 l 1
 573 47 595 65 607 85 c 0
 617 107 621 121 621 129 c 1
 597 129 576 138 558 156 c 0
 542 173 534 194 534 218 c 0
 534 242 542 261 559 279 c 0
 578 296 598 305 621 305 c 0
 644 305 665 298 682 282 c 0
EndSplineSet
Validated: 1
EndChar

StartChar: message
Encoding: 61471 61471 31
Width: 1024
VWidth: 0
Flags: H
LayerCount: 2
Fore
SplineSet
159 414 m 1
 512 239 l 1
 865 414 l 1
 865 45 l 1
 159 45 l 1
 159 414 l 1
159 569 m 1
 865 569 l 1
 865 471 l 1
 512 295 l 1
 159 471 l 1
 159 569 l 1
EndSplineSet
Validated: 1
EndChar

StartChar: twitter
Encoding: 61472 61472 32
Width: 1024
VWidth: 0
Flags: H
LayerCount: 2
Fore
SplineSet
906 556 m 0
 885 524 858 496 827 474 c 1
 827 467 828 461 828 454 c 0
 828 246 670 6 380 6 c 0
 291 6 208 32 138 77 c 1
 150 76 163 75 176 75 c 0
 250 75 317 100 371 142 c 1
 302 143 244 188 224 251 c 1
 234 249 244 248 254 248 c 0
 268 248 282 250 295 254 c 1
 223 268 169 332 169 408 c 0
 169 409 169 409 169 410 c 1
 190 398 214 392 240 391 c 1
 198 419 170 467 170 522 c 0
 170 551 178 578 192 601 c 1
 270 506 385 443 516 436 c 1
 513 448 512 460 512 472 c 0
 512 559 583 630 670 630 c 0
 715 630 755 611 784 580 c 1
 820 587 854 600 884 618 c 1
 872 581 847 550 815 531 c 1
 847 535 878 543 906 556 c 0
EndSplineSet
Validated: 1
EndChar

StartChar: home
Encoding: 61473 61473 33
Width: 1024
VWidth: 0
Flags: H
LayerCount: 2
Fore
SplineSet
512 616.333 m 1
 960 264.333 l 1
 917.333 211 l 1
 512 531 l 1
 106.667 211 l 1
 64 264.333 l 1
 512 616.333 l 1
512 467 m 1
 832 221.667 l 1
 832 -13 l 1
 192 -13 l 1
 192 221.667 l 1
 512 467 l 1
EndSplineSet
Validated: 1
EndChar

StartChar: at
Encoding: 61474 61474 34
Width: 1024
VWidth: 2048
Flags: HW
LayerCount: 2
Fore
SplineSet
457.387 383.693 m 0
 443.946 363.64 437.333 336.547 437.333 302.307 c 0
 437.333 267.427 443.946 239.906 457.387 219.854 c 0
 470.72 199.693 488.96 189.667 512 189.667 c 0
 534.613 189.667 552.747 199.8 566.293 219.96 c 0
 579.84 240.333 586.667 267.747 586.667 302.307 c 0
 586.667 336.547 579.84 363.64 566.187 383.693 c 0
 552.533 403.64 534.187 413.667 511.146 413.667 c 0
 488.747 413.667 470.72 403.64 457.387 383.693 c 0
597.333 113.507 m 1
 597.333 175.16 l 2
 589.333 156.174 576.427 141.347 558.72 130.787 c 0
 540.906 120.227 520.106 115 496.32 115 c 0
 450.453 115 413.12 132.174 384.32 166.627 c 0
 355.627 201.08 341.333 246.094 341.333 301.453 c 0
 341.333 356.813 355.733 401.72 384.533 436.28 c 0
 413.333 471.054 450.667 488.333 496.32 488.333 c 0
 520.106 488.333 540.906 482.894 558.72 472.12 c 0
 576.427 461.347 589.333 446.413 597.333 427.213 c 2
 597.333 477.667 l 1
 693.333 477.667 l 1
 693.333 189.667 l 1
 729.707 195 758.4 211.854 779.307 240.333 c 0
 800.213 268.92 810.667 305.4 810.667 349.88 c 0
 810.667 378.146 806.613 404.707 798.507 429.453 c 0
 790.4 454.2 778.026 477.026 761.493 497.72 c 0
 734.826 532.174 701.547 558.84 661.547 577.507 c 0
 621.547 596.28 578.24 605.667 531.627 605.667 c 0
 499.094 605.667 467.946 601.4 438.187 592.866 c 0
 408.533 584.227 381.014 571.747 355.627 555.213 c 0
 314.24 527.693 281.92 492.174 258.667 448.653 c 0
 235.52 405.134 224 357.88 224 307.213 c 0
 224 265.4 231.467 226.253 246.293 189.667 c 0
 261.333 153.08 282.88 120.867 311.04 92.8135 c 0
 338.88 65.4004 370.88 44.4932 407.04 29.9863 c 0
 443.094 15.5869 481.707 8.33301 522.667 8.33301 c 0
 557.76 8.33301 592.854 15.0537 628.054 28.4932 c 0
 663.253 41.9336 693.227 60.1738 717.974 83 c 1
 768 13.4531 l 1
 733.014 -12.2529 694.826 -31.9863 653.653 -45.6396 c 0
 612.373 -59.4004 570.561 -66.333 528.213 -66.333 c 0
 476.373 -66.333 427.52 -57.1602 381.653 -39.0264 c 0
 335.787 -20.8936 294.934 5.45312 259.2 40.1201 c 0
 223.36 74.7871 196.054 114.787 177.28 160.333 c 0
 158.72 205.986 149.333 254.946 149.333 307.32 c 0
 149.333 357.773 158.72 405.88 177.707 451.64 c 0
 196.587 497.4 223.467 537.613 258.347 572.174 c 0
 293.333 606.627 334.08 633.187 380.48 651.96 c 0
 427.094 670.84 475.2 680.333 525.12 680.333 c 0
 587.413 680.333 643.84 668.387 694.613 644.493 c 0
 745.387 620.707 787.84 586.36 821.974 541.453 c 0
 842.88 514.253 858.667 484.707 869.333 452.707 c 0
 880 420.707 885.333 387.213 885.333 352.12 c 0
 885.333 276.6 861.76 217.934 814.72 176.12 c 0
 767.573 134.413 701.014 113.507 615.146 113.507 c 2
 597.333 113.507 l 1
EndSplineSet
Validated: 524289
EndChar

StartChar: uniF023
Encoding: 61475 61475 35
Width: 1024
VWidth: 0
Flags: H
LayerCount: 2
Fore
SplineSet
453.274 -41.1465 m 4
 373.289 6.66992 317.151 50.3711 251.57 115.875 c 4
 158.694 208.643 113.538 287.256 101.624 376.91 c 4
 90.0762 463.828 114.734 539.898 171.487 592.441 c 4
 252 666.982 332.532 673.111 465.462 614.811 c 6
 511.712 594.527 l 5
 566.741 618.023 l 6
 665.696 660.264 731.004 664.473 796.185 632.803 c 4
 831.526 615.631 885.926 561.686 901.277 528.59 c 4
 944.358 435.713 928.704 322.969 857.874 216.035 c 4
 823.929 164.781 732.107 71.4746 670.037 25.1562 c 4
 630.164 -4.59961 535.594 -64.0332 516.399 -71.4004 c 4
 511.946 -73.1094 485.691 -60.5273 453.274 -41.1465 c 4
EndSplineSet
Validated: 524321
EndChar
